<svg width="12" height="12" viewBox="0 0 12 12" fill="none" xmlns="http://www.w3.org/2000/svg">
	<path d="M4.6875 7.12491C4.99816 7.12491 5.25 7.37675 5.25 7.68741V8.81243C5.25 9.12308 4.99816 9.37493 4.6875 9.37493C4.37684 9.37493 4.125 9.12308 4.125 8.81243V7.68741C4.125 7.37675 4.37684 7.12491 4.6875 7.12491Z" fill="white" />
	<path d="M7.875 7.68741C7.875 7.37675 7.62315 7.12491 7.3125 7.12491C7.00184 7.12491 6.75 7.37675 6.75 7.68741V8.81243C6.75 9.12308 7.00184 9.37493 7.3125 9.37493C7.62315 9.37493 7.875 9.12308 7.875 8.81243V7.68741Z" fill="white" />
	<path d="M5.89559 1.70203C5.93271 1.7418 5.96747 1.78288 6 1.82517C6.03253 1.78288 6.06729 1.7418 6.10441 1.70203C6.61587 1.15404 7.40776 1.02786 8.3121 1.12834C9.23482 1.23086 9.92123 1.52416 10.3554 2.07378C10.7794 2.61042 10.875 3.28436 10.875 3.9374C10.875 4.36642 10.8353 4.79775 10.6844 5.1787L10.8101 5.80732L10.8599 5.83219C11.5586 6.18157 12 6.89574 12 7.67695V8.62492C12 8.80455 11.9357 8.95365 11.883 9.05025C11.8268 9.15315 11.7563 9.24615 11.6888 9.32497C11.5537 9.48262 11.3857 9.63465 11.2351 9.76012C11.0813 9.8883 10.9296 10.002 10.8176 10.0828C10.6382 10.2124 10.4542 10.332 10.262 10.4425C10.0317 10.575 9.7008 10.7497 9.29002 10.924C8.4717 11.2711 7.31703 11.6249 6 11.6249C4.68297 11.6249 3.52831 11.2711 2.71 10.924C2.29919 10.7497 1.96826 10.575 1.73804 10.4425C1.54582 10.332 1.36186 10.2124 1.18238 10.0828C1.07037 10.002 0.918675 9.8883 0.764895 9.76012C0.61425 9.63465 0.446335 9.48262 0.311199 9.32497C0.243675 9.24615 0.173137 9.15315 0.117023 9.05025C0.064309 8.95365 0 8.80455 1.43051e-06 8.62492L0 7.67695C0 6.89574 0.44138 6.18157 1.14013 5.83219L1.18988 5.80732L1.3156 5.1787C1.16471 4.79774 1.125 4.36642 1.125 3.9374C1.125 3.28436 1.22059 2.61042 1.64456 2.07378C2.07879 1.52416 2.76521 1.23086 3.68789 1.12834C4.59224 1.02786 5.38413 1.15404 5.89559 1.70203ZM2.26732 6.15646L2.25 6.2431V9.4389C2.26564 9.44805 2.28201 9.45757 2.29907 9.4674C2.49658 9.58102 2.78675 9.73447 3.14937 9.8883C3.87794 10.1974 4.87953 10.4999 6 10.4999C7.12047 10.4999 8.12205 10.1974 8.8506 9.8883C9.21323 9.73447 9.5034 9.58102 9.70095 9.4674C9.71797 9.45757 9.73433 9.44805 9.75 9.4389V6.2431L9.73268 6.15646C9.36503 6.31369 8.92665 6.3749 8.4375 6.3749C7.57778 6.3749 6.89288 6.12925 6.40525 5.63144C6.24097 5.46374 6.10764 5.27602 6 5.07436C5.89236 5.27602 5.75903 5.46374 5.59475 5.63144C5.10712 6.12925 4.42225 6.3749 3.5625 6.3749C3.07332 6.3749 2.63494 6.31369 2.26732 6.15646ZM5.07316 2.46964C4.92837 2.31451 4.59526 2.15944 3.81211 2.24646C3.04729 2.33144 2.70246 2.5495 2.52731 2.7712C2.34191 3.00586 2.25 3.36316 2.25 3.9374C2.25 4.53163 2.34679 4.81548 2.48115 4.96521C2.60284 5.10082 2.87076 5.2499 3.5625 5.2499C4.20275 5.2499 4.56677 5.07319 4.79108 4.8442C5.02762 4.60273 5.1863 4.22448 5.25434 3.68013C5.34206 2.97842 5.22604 2.63344 5.07316 2.46964ZM6.92684 2.46964C6.77396 2.63344 6.65795 2.97842 6.74566 3.68013C6.8137 4.22448 6.97238 4.60273 7.20892 4.8442C7.43323 5.07319 7.79723 5.2499 8.4375 5.2499C9.12922 5.2499 9.39713 5.10082 9.51885 4.96521C9.65325 4.81548 9.75 4.53163 9.75 3.9374C9.75 3.36316 9.65812 3.00586 9.47272 2.7712C9.29752 2.5495 8.95268 2.33144 8.1879 2.24646C7.40474 2.15944 7.07163 2.31451 6.92684 2.46964Z" fill="white" />
</svg>
